<?xml version="1.0" encoding="UTF-8"?>
<svg version="1.1" xmlns="http://www.w3.org/2000/svg" width="1024" height="1024">
<path d="M0 0 C337.92 0 675.84 0 1024 0 C1024 337.92 1024 675.84 1024 1024 C686.08 1024 348.16 1024 0 1024 C0 686.08 0 348.16 0 0 Z " fill="#FFFFFF" transform="translate(0,0)"/>
<path d="M0 0 C9.9 0.0825 19.8 0.165 30 0.25 C30 20.38 30 40.51 30 61.25 C8.75 61.5 8.75 61.5 2.12011719 61.54785156 C-10.88287593 61.72461167 -22.19100148 62.12716906 -32.37890625 71.17578125 C-37.14334453 77.27196613 -37.4367212 83.11384244 -37.40063477 90.56884766 C-37.40761383 91.58286652 -37.4145929 92.59688538 -37.42178345 93.64163208 C-37.44172085 96.98252748 -37.44125993 100.32311294 -37.44140625 103.6640625 C-37.45318717 105.99946925 -37.46655314 108.33486849 -37.48143005 110.67025757 C-37.51759836 116.81699037 -37.53780563 122.96365673 -37.55297852 129.11047363 C-37.57780551 138.92636764 -37.61780487 148.74211454 -37.67487907 158.55787277 C-37.69108023 161.97039052 -37.69497486 165.38276731 -37.69789124 168.7953186 C-37.78718293 195.05567849 -41.88139756 219.94532579 -61.15625 239.4296875 C-66.31102841 244.23960397 -71.87169586 247.81043857 -78 251.25 C-79.66933504 252.2455392 -81.33672562 253.2443678 -83 254.25 C-82.24976563 254.5903125 -81.49953125 254.930625 -80.7265625 255.28125 C-63.17863457 263.5911 -51.1024975 276.23319126 -44 294.25 C-41.04574775 302.87295045 -39.02255775 311.82101485 -38.69677734 320.94262695 C-38.65678619 322.04994675 -38.61679504 323.15726654 -38.57559204 324.29814148 C-38.51883804 326.09382317 -38.51883804 326.09382317 -38.4609375 327.92578125 C-38.41899261 329.19392166 -38.37704773 330.46206207 -38.33383179 331.76863098 C-38.0202346 341.71306663 -37.88103786 351.65683554 -37.7890625 361.60546875 C-37.7745938 363.08114661 -37.76008768 364.5568241 -37.74554443 366.03250122 C-37.68786509 372.03358825 -37.63153614 378.03460698 -37.59863281 384.03588867 C-37.5775803 387.7848039 -37.54227609 391.53335995 -37.49787521 395.28206825 C-37.48389367 396.68325908 -37.47503405 398.08451237 -37.47182083 399.48576927 C-37.4424128 411.02614119 -36.69257542 420.62156057 -28.44140625 429.20703125 C-21.82904146 434.74025811 -14.26198922 437.33585379 -6 439.25 C-6.46148437 440.17296875 -6.92296875 441.0959375 -7.3984375 442.046875 C-7.70765137 442.6653833 -8.01686523 443.2838916 -8.33544922 443.92114258 C-9.04254691 445.3351719 -9.74991381 446.74906663 -10.45751953 448.1628418 C-12.44662647 452.13806388 -14.43081509 456.11562058 -16.40625 460.09765625 C-22.10662917 471.57097311 -27.98577097 482.93813093 -34 494.25 C-40.17721589 493.13109458 -45.44474923 491.40966462 -51 488.5 C-52.04353638 487.96221924 -52.04353638 487.96221924 -53.1081543 487.41357422 C-73.39695998 476.80607021 -87.59219898 460.96097627 -95 439.25 C-98.82626381 426.4268456 -100.13788589 413.97291452 -100.26036072 400.62022781 C-100.28168576 398.30423703 -100.30868869 395.98836971 -100.33703613 393.67245483 C-100.39637885 388.74001998 -100.44854676 383.80752252 -100.5 378.875 C-100.5598287 373.18440787 -100.62278068 367.49387427 -100.69187927 361.80338669 C-100.71783067 359.55616987 -100.73902451 357.30894489 -100.7598877 355.06167603 C-100.84087836 347.57994848 -101.04957136 340.1145167 -101.43945312 332.64208984 C-101.47552422 331.9129217 -101.51159531 331.18375355 -101.54875946 330.4324894 C-102.22408171 318.54249889 -104.50846918 306.7531286 -112.375 297.4375 C-113.674375 296.3546875 -113.674375 296.3546875 -115 295.25 C-115.99 294.404375 -116.98 293.55875 -118 292.6875 C-127.87579697 285.95496744 -139.36382445 285.97726097 -151 285.25 C-151 265.78 -151 246.31 -151 226.25 C-140.605 224.765 -140.605 224.765 -130 223.25 C-120.37060671 219.69131117 -113.04473421 213.57205128 -108.125 204.4375 C-102.91359275 192.86458184 -101.81776595 180.66052689 -101.93408203 168.13476562 C-101.93875488 167.16589417 -101.94342773 166.19702271 -101.94824219 165.1987915 C-101.95868789 163.10853422 -101.97133117 161.01828697 -101.98596573 158.92805481 C-102.00816022 155.60417507 -102.02212962 152.28035384 -102.03366089 148.9564209 C-102.06707823 139.50992897 -102.10852773 130.06353291 -102.17138672 120.6171875 C-102.20935323 114.8231379 -102.23215497 109.02918697 -102.24569321 103.23503113 C-102.25366988 101.04409537 -102.26716585 98.8531716 -102.28662491 96.66230774 C-102.51631422 70.3318348 -99.22406976 44.63409489 -80.46142578 24.54931641 C-71.50271285 15.4341194 -60.05616059 8.48528319 -48 4.25 C-46.55488037 3.71608643 -46.55488037 3.71608643 -45.08056641 3.17138672 C-30.48792129 -1.35667524 -15.1044785 -0.17794058 0 0 Z " fill="#141414" transform="translate(365,103.75)"/>
<path d="M0 0 C13.95090482 4.74924419 25.49902352 11.55661571 36 22 C36.82564453 22.7734375 36.82564453 22.7734375 37.66796875 23.5625 C50.99775355 37.28538837 54.16887213 57.86576516 54.1328125 76.109375 C54.13413177 77.17692017 54.13545105 78.24446533 54.1368103 79.34436035 C54.13872328 82.81293663 54.13238728 86.28143192 54.125 89.75 C54.12367065 91.53174622 54.12367065 91.53174622 54.12231445 93.3494873 C54.10949953 107.99053415 53.97442885 122.61651019 53.5 137.25 C53.15337287 148.1327575 52.84326735 159.01187065 52.76782227 169.9005127 C52.7561912 171.31145693 52.73934124 172.72237058 52.71655273 174.13317871 C52.498575 188.21162269 54.67464041 200.33392601 64.6875 210.8125 C76.54741005 218.64451607 86.75636573 219.98259755 101 221 C101 239.48 101 257.96 101 277 C94.73 277.33 88.46 277.66 82 278 C71.85838197 280.93573154 64.05346415 284.70154031 58.22265625 293.76171875 C50.36803524 308.45312479 49.89412958 323.88812812 49.71875 340.1875 C49.70062984 341.53874344 49.68202376 342.88998043 49.66296387 344.24121094 C49.60393511 348.49408594 49.55160756 352.74702944 49.5 357 C48.90056956 406.03958669 48.90056956 406.03958669 46.3125 418.75 C46.0508606 420.05819702 46.0508606 420.05819702 45.78393555 421.39282227 C41.5012039 441.53368594 30.91398399 460.45766518 13.73046875 472.34765625 C10.54440062 474.36965678 7.32869704 476.22386688 4 478 C2.66195312 478.72123047 2.66195312 478.72123047 1.296875 479.45703125 C-12.17249073 486.13122295 -26.97916555 488.16901807 -41.83984375 488.09765625 C-43.33312195 488.09614563 -43.33312195 488.09614563 -44.85656738 488.09460449 C-48.55022342 488.08940038 -52.24386296 488.07543924 -55.9375 488.0625 C-64.208125 488.041875 -72.47875 488.02125 -81 488 C-81 468.2 -81 448.4 -81 428 C-62.75 427.6875 -62.75 427.6875 -57.06933594 427.61206055 C-38.79816196 427.32234964 -38.79816196 427.32234964 -23 419 C-15.26331175 410.31353928 -15.70137642 398.09439533 -15.47927856 387.09947395 C-15.43616767 384.96932468 -15.38221029 382.83966346 -15.32592773 380.70982361 C-15.20773604 376.16092312 -15.10345549 371.61175545 -15 367.0625 C-14.21803145 333.17505953 -14.21803145 333.17505953 -13.0390625 316.41796875 C-12.96123535 315.2993898 -12.8834082 314.18081085 -12.80322266 313.02833557 C-11.17395768 291.60963966 -5.41566378 272.66884008 11 258 C17.1653719 253.31431736 23.81811631 249.85502043 31 247 C30.10539063 246.59910156 29.21078125 246.19820312 28.2890625 245.78515625 C19.97830758 241.93017447 13.4445504 237.64124224 7 231 C6.35417969 230.36320313 5.70835937 229.72640625 5.04296875 229.0703125 C-10.28068203 212.97880994 -10.58005643 191.26828963 -10.30065918 170.43936157 C-10.24894637 166.54566742 -10.22338181 162.65252704 -10.20410156 158.75854492 C-10.160137 150.50544392 -10.08184128 142.25279895 -10 134 C-9.9050364 124.40056585 -9.82395885 114.8013949 -9.77624512 105.20159912 C-9.75043116 101.37639041 -9.70043077 97.55199403 -9.64941406 93.72705078 C-9.63488099 91.37663464 -9.62147443 89.02621118 -9.609375 86.67578125 C-9.58870972 85.62210861 -9.56804443 84.56843597 -9.54675293 83.48283386 C-9.54449177 75.5515187 -11.55847302 70.03791001 -15.625 63.3125 C-19.26187482 59.77133242 -23.5814039 57.45383868 -28 55 C-26.31723296 49.02016713 -23.39840052 43.76916416 -20.5 38.3125 C-19.96826172 37.30316406 -19.43652344 36.29382813 -18.88867188 35.25390625 C-17.79477752 33.17824497 -16.69906879 31.10353889 -15.6015625 29.02978516 C-14.10252675 26.19395685 -12.6117997 23.35397726 -11.125 20.51171875 C-10.25008776 18.84109987 -9.37509234 17.17052455 -8.5 15.5 C-8.10361328 14.74243408 -7.70722656 13.98486816 -7.29882812 13.2043457 C-4.95547621 8.74747063 -2.52296596 4.35785029 0 0 Z " fill="#131314" transform="translate(708,118)"/>
<path d="M0 0 C3.96432569 0.81059695 5.71468939 2.55932896 8.4453125 5.5 C10.08296414 8.77530329 9.9496306 11.95971635 9.4453125 15.5 C8.13244606 19.13665761 6.36168444 22.48561243 4.546875 25.89453125 C4.03788666 26.88136398 3.52889832 27.86819672 3.00448608 28.88493347 C1.37485572 32.03556563 -0.27694893 35.17393931 -1.9296875 38.3125 C-3.00277832 40.37879131 -4.07440647 42.44584291 -5.14453125 44.51367188 C-10.38900426 54.62730966 -15.71133563 64.70016041 -21.02456665 74.77778625 C-24.79746473 81.9424434 -28.50638018 89.13924312 -32.19998169 96.34503174 C-34.14275819 100.13483864 -36.08898196 103.92287462 -38.03515625 107.7109375 C-38.42267563 108.46531097 -38.81019501 109.21968445 -39.2094574 109.99691772 C-42.66200887 116.71497334 -46.13572438 123.42187686 -49.6171875 130.125 C-54.76179261 140.03163393 -59.88298822 149.95007875 -64.9921875 159.875 C-70.40011985 170.3795293 -75.81370725 180.88107267 -81.2421875 191.375 C-81.5525293 191.97505859 -81.86287109 192.57511719 -82.18261719 193.19335938 C-85.36758303 199.35118096 -88.55651049 205.50690102 -91.7578125 211.65625 C-100.48871432 228.43734378 -109.09552368 245.28049098 -117.67749023 262.13818359 C-123.15205938 272.88458939 -128.67717482 283.60241252 -134.26631165 294.28970337 C-138.30927078 302.02126697 -142.3129069 309.77227747 -146.29510498 317.53527832 C-148.20138736 321.25103671 -150.11056491 324.96530748 -152.01953125 328.6796875 C-152.59335541 329.79633789 -152.59335541 329.79633789 -153.17877197 330.93554688 C-161.7316403 347.57531886 -170.33693059 364.18788219 -179.00195312 380.76953125 C-183.64336838 389.65682172 -188.2489209 398.56257239 -192.85205078 407.46972656 C-193.49250385 408.70898912 -194.13296608 409.94824693 -194.7734375 411.1875 C-195.09037567 411.80075134 -195.40731384 412.41400269 -195.7338562 413.0458374 C-198.95872784 419.28422873 -202.19436881 425.51702162 -205.4296875 431.75 C-209.25157132 439.11366393 -213.06364606 446.48220227 -216.859375 453.859375 C-217.22528748 454.57052963 -217.59119995 455.28168427 -217.96820068 456.01438904 C-219.449273 458.8931385 -220.93024886 461.77193749 -222.41088867 464.65090942 C-226.91729845 473.4114052 -231.44996157 482.15564158 -236.08203125 490.85058594 C-238.25981268 494.96105483 -240.35275626 499.10335107 -242.390625 503.28515625 C-242.87611816 504.27684814 -243.36161133 505.26854004 -243.86181641 506.2902832 C-244.79265452 508.1996826 -245.71486942 510.11332158 -246.62646484 512.03198242 C-250.13149452 519.21815722 -254.08004507 525.9593799 -261.5546875 529.5 C-267.07970492 531.15987648 -273.43576969 531.71816319 -278.875 529.59375 C-284.71656096 526.12879369 -289.79099511 521.23409823 -291.5546875 514.5 C-292.39456866 499.67765281 -282.1559286 485.9691951 -275.015625 473.5625 C-271.58872647 467.59765696 -268.30886595 461.56037141 -265.0546875 455.5 C-259.2565852 444.73010553 -253.26385861 434.07970806 -247.22265625 423.44482422 C-244.33600347 418.34839479 -241.47668527 413.23670025 -238.6171875 408.125 C-238.03662598 407.08754639 -237.45606445 406.05009277 -236.85791016 404.98120117 C-235.08977527 401.82102098 -233.32214416 398.66055956 -231.5546875 395.5 C-224.21258011 382.3708703 -216.85640161 369.25034094 -209.44677734 356.15917969 C-203.11184446 344.96050486 -196.8345458 333.72961975 -190.5546875 322.5 C-183.21258011 309.3708703 -175.85640161 296.25034094 -168.44677734 283.15917969 C-162.70395764 273.00722203 -157.00958363 262.8282911 -151.31640625 252.6484375 C-149.57456825 249.53552967 -147.8306326 246.42380728 -146.0859375 243.3125 C-140.03105078 232.5129979 -133.99725325 221.70229219 -127.9921875 210.875 C-122.83585559 201.58008558 -117.63850724 192.30981329 -112.39819336 183.06201172 C-108.42804985 176.05373454 -104.48582686 169.03022277 -100.5546875 162 C-96.07439414 153.98874844 -91.5766264 145.98781909 -87.0546875 138 C-80.77495395 126.90532725 -74.54368018 115.78386546 -68.32080078 104.65722656 C-65.40070613 99.43706289 -62.47755184 94.21861321 -59.5546875 89 C-58.38800596 86.91667499 -57.2213393 84.83334166 -56.0546875 82.75 C-53.72135417 78.58333333 -51.38802083 74.41666667 -49.0546875 70.25 C-48.47702637 69.21842773 -47.89936523 68.18685547 -47.30419922 67.12402344 C-46.13927914 65.04387868 -44.97424036 62.96380038 -43.80908203 60.88378906 C-40.86470824 55.62721343 -37.92250388 50.36944406 -34.984375 45.109375 C-32.07976816 39.91010887 -29.16677321 34.71561237 -26.24951172 29.5234375 C-24.55391504 26.498622 -22.8686736 23.46818375 -21.18359375 20.4375 C-20.12026312 18.5414022 -19.05648235 16.64555674 -17.9921875 14.75 C-17.51571777 13.88665039 -17.03924805 13.02330078 -16.54833984 12.13378906 C-12.30442454 4.6182393 -9.19138222 -0.43899139 0 0 Z " fill="#141314" transform="translate(672.5546875,88.5)"/>
<path d="M0 0 C12.42789744 10.40229785 19.98482153 26.06044639 21.42285156 42.11083984 C22.60933631 61.08179195 18.46583975 78.69232029 5.92578125 93.42578125 C-5.00652709 104.80054389 -19.65040406 111.62013359 -35.48828125 112.38671875 C-54.47718583 112.73619601 -70.41565608 108.72558985 -84.54296875 95.3359375 C-97.58739817 81.90109382 -102.44510579 64.8001521 -102.23193359 46.42016602 C-101.64266321 30.07027633 -95.57897513 15.14193554 -84.203125 3.265625 C-60.59422296 -18.15237094 -25.3816736 -17.91436369 0 0 Z " fill="#131313" transform="translate(880.76171875,715.94921875)"/>
<path d="M0 0 C68.43591371 0 68.43591371 0 81.1796875 10.1640625 C88.46758429 17.51451635 91.40162444 26.57447356 91.375 36.6875 C91.29837489 48.35337817 88.68447296 55.89581712 80.70703125 64.61328125 C77.06582824 67.82363484 73.08673434 70.39360492 69 73 C79.70150443 92.21120885 79.70150443 92.21120885 90.71020508 111.24731445 C91.34285278 112.32758911 91.34285278 112.32758911 91.98828125 113.4296875 C92.35477783 114.05085449 92.72127441 114.67202148 93.09887695 115.31201172 C94 117 94 117 95 120 C85.76 120 76.52 120 67 120 C66.01 118.21335937 65.02 116.42671875 64 114.5859375 C63.01482296 112.80967688 62.02963599 111.03342176 61.04421997 109.2572937 C60.35025124 108.00635711 59.65646346 106.75532012 58.96286011 105.50418091 C54.46405145 97.39089038 49.92526332 89.30602107 45.22265625 81.30859375 C44 79 44 79 44 77 C37.73 77 31.46 77 25 77 C25 91.19 25 105.38 25 120 C16.75 120 8.5 120 0 120 C0 80.4 0 40.8 0 0 Z " fill="#141414" transform="translate(672,706)"/>
<path d="M0 0 C8.25 0 16.5 0 25 0 C29.14507708 5.92153868 33.23541715 11.79667976 37.125 17.875 C38.08311454 19.36342211 39.04145725 20.85169737 40 22.33984375 C40.49242187 23.10538574 40.98484375 23.87092773 41.4921875 24.65966797 C44.02596086 28.59243213 46.57498706 32.51525272 49.125 36.4375 C49.6516626 37.24767578 50.1783252 38.05785156 50.72094727 38.89257812 C55.49153403 46.22653863 60.27555489 53.55171147 65.0625 60.875 C65.42998352 61.43734344 65.79746704 61.99968689 66.17608643 62.57907104 C67.23295627 64.19615245 68.29029908 65.8129247 69.34765625 67.4296875 C70.26043335 68.82550049 70.26043335 68.82550049 71.19165039 70.24951172 C73.11493624 73.17481729 75.05803897 76.08705845 77 79 C77.33 52.93 77.66 26.86 78 0 C85.92 0 93.84 0 102 0 C102 39.6 102 79.2 102 120 C76 120 76 120 71.0625 115.625 C69.98001565 113.4462241 68.96518311 111.23321704 68 109 C66.43267244 106.26361197 64.73735214 103.60903777 63.0625 100.9375 C62.12005004 99.37823453 61.17869797 97.8183051 60.23828125 96.2578125 C55.28942058 88.14548901 50.0187629 80.23868574 44.796875 72.30078125 C38.17185914 62.21759344 31.59065934 52.10567766 25 42 C24.67 67.74 24.34 93.48 24 120 C16.08 120 8.16 120 0 120 C0 80.4 0 40.8 0 0 Z " fill="#131314" transform="translate(111,706)"/>
<path d="M0 0 C1.16781006 0.00523682 2.33562012 0.01047363 3.53881836 0.01586914 C4.79887695 0.0190918 6.05893555 0.02231445 7.35717773 0.02563477 C8.6976732 0.03399136 10.03816799 0.04245632 11.37866211 0.05102539 C12.72306153 0.05603879 14.06746271 0.06060197 15.41186523 0.06469727 C18.71334151 0.07653051 22.01473014 0.09301568 25.31616211 0.11352539 C25.53119385 0.69455521 25.74622559 1.27558502 25.96777344 1.8742218 C39.50411477 38.45053701 39.50411477 38.45053701 53.07641602 75.01351929 C53.72286552 76.75252667 54.36903668 78.49163755 55.01489258 80.23086548 C55.9217289 82.67254868 56.82957548 85.11385273 57.73803711 87.55493164 C58.0244104 88.32492996 58.31078369 89.09492828 58.60583496 89.88825989 C60.22915096 94.24043096 61.87641014 98.58257223 63.54467773 102.91772461 C63.91538391 103.88266342 64.28609009 104.84760223 64.66802979 105.84178162 C65.38925999 107.71587889 66.11339504 109.58886145 66.84075928 111.46058655 C67.16425354 112.30117111 67.4877478 113.14175568 67.82104492 114.0078125 C68.11005676 114.75340927 68.3990686 115.49900604 68.69683838 116.26719666 C69.31616211 118.11352539 69.31616211 118.11352539 69.31616211 120.11352539 C60.73616211 120.11352539 52.15616211 120.11352539 43.31616211 120.11352539 C39.7447805 111.54220953 36.43924473 102.85815673 33.31616211 94.11352539 C17.80616211 93.78352539 2.29616211 93.45352539 -13.68383789 93.11352539 C-14.01383789 95.09352539 -14.34383789 97.07352539 -14.68383789 99.11352539 C-15.25043746 100.8568836 -15.86708626 102.58473548 -16.53149414 104.29321289 C-16.85384033 105.13094238 -17.17618652 105.96867188 -17.50830078 106.83178711 C-17.91685303 107.87351074 -18.32540527 108.91523437 -18.74633789 109.98852539 C-20.69540039 115.00040039 -20.69540039 115.00040039 -22.68383789 120.11352539 C-30.60383789 120.11352539 -38.52383789 120.11352539 -46.68383789 120.11352539 C-45.31484531 113.9530588 -43.87637636 108.44017039 -41.65649414 102.62133789 C-41.35568436 101.81786423 -41.05487457 101.01439056 -40.74494934 100.18656921 C-39.75090992 97.53511944 -38.74859084 94.88688009 -37.74633789 92.23852539 C-37.04079103 90.36075148 -36.33589003 88.48273478 -35.6315918 86.60449219 C-34.12197846 82.58005473 -32.60952451 78.55669998 -31.09545898 74.53393555 C-27.30484865 64.45323453 -23.55565649 54.35707171 -19.80050659 44.26312256 C-17.10311159 37.01362903 -14.4027922 29.76522885 -11.69848633 22.51831055 C-10.40481151 19.05116054 -9.1164322 15.58213083 -7.83325195 12.11108398 C-7.28606005 10.63663417 -6.73886013 9.16218733 -6.19165039 7.68774414 C-5.94784637 7.02418411 -5.70404236 6.36062408 -5.45285034 5.67695618 C-3.39388395 0.14356009 -3.39388395 0.14356009 0 0 Z " fill="#131313" transform="translate(277.683837890625,705.886474609375)"/>
<path d="M0 0 C5.93377394 5.07775409 10.33483892 11.287675 12 19 C12 21.97 12 24.94 12 28 C4.08 28 -3.84 28 -12 28 C-12.99 25.03 -13.98 22.06 -15 19 C-19.19033284 14.58316268 -23.85569257 13.18759963 -29.83984375 12.6640625 C-31.20546904 12.63439649 -32.5715563 12.62178526 -33.9375 12.625 C-34.64535645 12.62661133 -35.35321289 12.62822266 -36.08251953 12.62988281 C-41.60174363 12.760228 -44.82272478 13.41947838 -49 17 C-51.42313667 19.94990551 -51.43927357 23.28475104 -51.29296875 27.046875 C-50.77729067 30.48472887 -49.63680641 31.73112007 -47 34 C-39.24218668 38.17569363 -31.0816825 40.56424546 -22.625 42.875 C-8.55273546 46.89796054 5.78576598 51.27684638 13.4375 64.8125 C16.77860862 73.23035807 16.47864937 85.0786683 13.5 93.5625 C8.00253006 104.65288208 -0.45776026 109.73639466 -11.69921875 114.03125 C-26.90067877 118.71529474 -45.08443448 117.31644648 -59.375 110.625 C-68.58731825 105.63622063 -73.68123497 99.11310779 -77.375 89.375 C-78 86 -78 86 -78 78 C-70.41 78 -62.82 78 -55 78 C-54.01 80.64 -53.02 83.28 -52 86 C-46.84795224 91.52005117 -41.10199006 93.65341982 -33.625 94.28515625 C-25.41393701 94.4886632 -18.47215249 93.90689912 -11.5 89.375 C-9.19635022 85.72755452 -8.72412931 82.27972365 -9 78 C-11.60155329 71.55805852 -16.94767102 69.58530983 -23 67 C-27.78915546 65.34548253 -32.63535559 63.91489658 -37.5 62.5 C-64.86967557 54.53944688 -64.86967557 54.53944688 -72.4375 41.75 C-76.54604837 32.8462995 -76.73832263 22.7629174 -73.921875 13.42578125 C-69.39830821 3.52115837 -62.61232954 -1.88069675 -52.70703125 -6 C-35.75631215 -12.2617375 -15.09553517 -10.01993494 0 0 Z " fill="#131313" transform="translate(535,712)"/>
<path d="M0 0 C25.41 0 50.82 0 77 0 C77 7.26 77 14.52 77 22 C59.84 22 42.68 22 25 22 C25 30.91 25 39.82 25 49 C40.84 49 56.68 49 73 49 C73 56.26 73 63.52 73 71 C57.16 71 41.32 71 25 71 C25 79.91 25 88.82 25 98 C42.82 98 60.64 98 79 98 C79 105.26 79 112.52 79 120 C52.93 120 26.86 120 0 120 C0 80.4 0 40.8 0 0 Z " fill="#141314" transform="translate(362,706)"/>
<path d="M0 0 C9.74535251 6.90295803 15.24949636 16.00912916 17.8125 27.7109375 C18.61430199 40.85523237 18.34500049 53.28806908 9.49609375 63.90234375 C2.72706145 71.17394921 -3.86991186 75.81156913 -13.984375 77.0546875 C-24.31160111 77.40476296 -33.28032464 74.38641824 -41.1875 67.7109375 C-49.41090642 59.35670416 -53.24688788 47.61797101 -53.4375 36.0859375 C-53.29556519 24.61760485 -50.20486654 14.20172004 -42.30078125 5.67578125 C-30.66827646 -5.08828507 -14.16218567 -8.3455737 0 0 Z " fill="#F8F8F8" transform="translate(858.1875,729.2890625)"/>
<path d="M0 0 C32.01 0 64.02 0 97 0 C97 7.26 97 14.52 97 22 C85.12 22 73.24 22 61 22 C61 54.01 61 86.02 61 119 C52.75 119 44.5 119 36 119 C36 86.99 36 54.98 36 22 C24.12 22 12.24 22 0 22 C0 14.74 0 7.48 0 0 Z " fill="#141414" transform="translate(559,706)"/>
<path d="M0 0 C4.455 -0.061875 8.91 -0.12375 13.5 -0.1875 C14.88896484 -0.21481201 16.27792969 -0.24212402 17.70898438 -0.27026367 C32.23542678 -0.36770735 32.23542678 -0.36770735 37.54467773 4.38183594 C41.75677539 9.08639093 42.32596311 12.78058841 42.2109375 18.98046875 C41.70995772 23.77688625 39.52524257 26.49759406 36.125 29.75 C31.13433523 33.34327863 27.52201704 34.25134262 21.38671875 34.1953125 C20.26225342 34.19031738 19.13778809 34.18532227 17.97924805 34.18017578 C16.56297119 34.16196777 15.14669434 34.14375977 13.6875 34.125 C9.170625 34.08375 4.65375 34.0425 0 34 C0 22.78 0 11.56 0 0 Z " fill="#FFFFFF" transform="translate(697,727)"/>
<path d="M0 0 C0.66 0 1.32 0 2 0 C4.14057321 6.08572077 6.27632689 12.17311693 8.40869141 18.26171875 C9.13511276 20.33405099 9.86264859 22.40599291 10.59130859 24.47753906 C11.63670366 27.45015904 12.67812106 30.42414624 13.71875 33.3984375 C14.04685669 34.32868744 14.37496338 35.25893738 14.7130127 36.21737671 C15.16347961 37.50848862 15.16347961 37.50848862 15.62304688 38.82568359 C15.88952026 39.58513275 16.15599365 40.34458191 16.43054199 41.12704468 C17 43 17 43 17 45 C6.44 45 -4.12 45 -15 45 C-13.18769986 38.35489949 -11.40007352 31.93497452 -9.08203125 25.48828125 C-8.81992355 24.74918015 -8.55781586 24.01007904 -8.2877655 23.24858093 C-7.46641999 20.93520187 -6.6395839 18.6238328 -5.8125 16.3125 C-5.24767855 14.72474035 -4.68322268 13.13685061 -4.11914062 11.54882812 C-2.7502997 7.69770737 -1.37653812 3.84837584 0 0 Z " fill="#F7F7F8" transform="translate(287,733)"/>
<path d="M0 0 C32.01 0 64.02 0 97 0 C97 7.26 97 14.52 97 22 C85.12 22 73.24 22 61 22 C61 54.01 61 86.02 61 119 C52.75 119 44.5 119 36 119 C36 86.99 36 54.98 36 22 C24.12 22 12.24 22 0 22 C0 14.74 0 7.48 0 0 Z M2 2 C2 8.27 2 14.54 2 21 C13.22 21.33 24.44 21.66 36 22 C36.33 53.68 36.66 85.36 37 118 C44.26 118 51.52 118 59 118 C59.33 86.32 59.66 54.64 60 22 C71.88 21.67 83.76 21.34 96 21 C96 14.73 96 8.46 96 2 C64.98 2 33.96 2 2 2 Z " fill="#030303" transform="translate(559,706)"/>
<path d="M0 0 C0.66 0 1.32 0 2 0 C3.20593342 2.41186685 3.12318918 3.91233077 3.12025452 6.60635376 C3.12162918 7.5767308 3.12300385 8.54710785 3.12442017 9.54689026 C3.12082489 10.61503464 3.11722961 11.68317902 3.11352539 12.78369141 C3.11367142 13.90564407 3.11381744 15.02759674 3.1139679 16.18354797 C3.11326909 19.90623889 3.10547815 23.62888028 3.09765625 27.3515625 C3.09579196 29.92703219 3.09436811 32.50250224 3.09336853 35.07797241 C3.0899355 41.17300322 3.08204739 47.26801347 3.07201904 53.36303651 C3.05975544 60.98160424 3.05427355 68.60017487 3.04882812 76.21875 C3.03908184 89.81251394 3.01905074 103.40623884 3 117 C27.09 117 51.18 117 76 117 C76 114.03 76 111.06 76 108 C76.33 108 76.66 108 77 108 C77 111.63 77 115.26 77 119 C77.66 119.33 78.32 119.66 79 120 C52.93 120 26.86 120 0 120 C0 80.4 0 40.8 0 0 Z " fill="#1D1C1D" transform="translate(362,706)"/>
<path d="M0 0 C53 0 53 0 58 1 C58 1.33 58 1.66 58 2 C39.52 2 21.04 2 2 2 C2 40.28 2 78.56 2 118 C1.34 118 0.68 118 0 118 C0 79.06 0 40.12 0 0 Z " fill="#030303" transform="translate(672,706)"/>
<path d="M0 0 C7.92 0 15.84 0 24 0 C24 0.66 24 1.32 24 2 C16.74 2 9.48 2 2 2 C2 40.28 2 78.56 2 118 C8.6 118 15.2 118 22 118 C22 118.33 22 118.66 22 119 C14.74 119 7.48 119 0 119 C0 79.73 0 40.46 0 0 Z " fill="#030303" transform="translate(111,706)"/>
<path d="M0 0 C0.66 0 1.32 0 2 0 C2 39.6 2 79.2 2 120 C-6.58 120 -15.16 120 -24 120 C-24 119.01 -24 118.02 -24 117 C-16.08 117.33 -8.16 117.66 0 118 C0 79.06 0 40.12 0 0 Z " fill="#212122" transform="translate(211,706)"/>
<path d="M0 0 C24.75 0 49.5 0 75 0 C75 7.26 75 14.52 75 22 C57.51 22 40.02 22 22 22 C22 21.67 22 21.34 22 21 C38.83 21 55.66 21 73 21 C73 14.73 73 8.46 73 2 C48.91 2 24.82 2 0 2 C0 1.34 0 0.68 0 0 Z " fill="#030303" transform="translate(364,706)"/>
<path d="M0 0 C0.66 0 1.32 0 2 0 C2 8.91 2 17.82 2 27 C17.84 27 33.68 27 50 27 C50 34.26 50 41.52 50 49 C49.34 48.34 48.68 47.68 48 47 C45.86747907 46.72285104 45.86747907 46.72285104 43.4296875 46.8046875 C42.53378906 46.81113281 41.63789063 46.81757812 40.71484375 46.82421875 C39.77769531 46.84097656 38.84054687 46.85773437 37.875 46.875 C36.93011719 46.88402344 35.98523438 46.89304687 35.01171875 46.90234375 C32.67422708 46.92595478 30.33723877 46.95888484 28 47 C28 46.67 28 46.34 28 46 C34.27 46 40.54 46 47 46 C47 40.72 47 35.44 47 30 C45.61176025 29.97494385 44.22352051 29.9498877 42.79321289 29.92407227 C37.66257847 29.83018916 32.53208553 29.72992257 27.40161133 29.62768555 C25.17736104 29.58426412 22.95307585 29.54259455 20.72875977 29.50268555 C17.53911805 29.44515694 14.3496532 29.38141316 11.16015625 29.31640625 C10.15912369 29.29969376 9.15809113 29.28298126 8.12672424 29.26576233 C7.20584518 29.24581711 6.28496613 29.22587189 5.33618164 29.20532227 C4.52121719 29.18977798 3.70625275 29.1742337 2.86659241 29.15821838 C1 29 1 29 0 28 C-0.08767112 25.92737924 -0.10695873 23.85179706 -0.09765625 21.77734375 C-0.09443359 20.51728516 -0.09121094 19.25722656 -0.08789062 17.95898438 C-0.07953403 16.61848891 -0.07106907 15.27799412 -0.0625 13.9375 C-0.0574866 12.59310058 -0.05292342 11.2486994 -0.04882812 9.90429688 C-0.03699488 6.60282059 -0.02050971 3.30143197 0 0 Z " fill="#1E1E1F" transform="translate(385,728)"/>
<path d="M0 0 C0.99 0.33 1.98 0.66 3 1 C3 15.19 3 29.38 3 44 C-5.25 44 -13.5 44 -22 44 C-22 43.34 -22 42.68 -22 42 C-21.34 42 -20.68 42 -20 42 C-20 39.36 -20 36.72 -20 34 C-19.67 34 -19.34 34 -19 34 C-19 36.31 -19 38.62 -19 41 C-12.73 41 -6.46 41 0 41 C0 27.47 0 13.94 0 0 Z " fill="#1E1E1F" transform="translate(694,782)"/>
<path d="M0 0 C0.99 0.495 0.99 0.495 2 1 C4.84429357 1.08691001 7.66379176 1.11553802 10.5078125 1.09765625 C11.34843231 1.0962413 12.18905212 1.09482635 13.05514526 1.09336853 C15.74513275 1.08776237 18.43503759 1.07520886 21.125 1.0625 C22.94661338 1.05748579 24.76822807 1.05292275 26.58984375 1.04882812 C31.05992777 1.03779094 35.52994986 1.0205222 40 1 C40 1.33 40 1.66 40 2 C27.79 2 15.58 2 3 2 C3.03921316 14.06923786 3.03921316 14.06923786 3.09008789 26.13842773 C3.11910671 36.79656621 2.76841419 47.36954843 2 58 C1.34 57.67 0.68 57.34 0 57 C0 38.19 0 19.38 0 0 Z " fill="#1A191A" transform="translate(627,546)"/>
<path d="M0 0 C4 5 4 5 5 7 C4.01 7 3.02 7 2 7 C1.67 31.09 1.34 55.18 1 80 C0.67 80 0.34 80 0 80 C0 53.6 0 27.2 0 0 Z " fill="#EFEFF0" transform="translate(135,746)"/>
<path d="M0 0 C9.24 0 18.48 0 28 0 C30.25 5.625 30.25 5.625 29 9 C28.34 6.69 27.68 4.38 27 2 C18.42 2.33 9.84 2.66 1 3 C0.67 3.66 0.34 4.32 0 5 C-0.66 4.67 -1.32 4.34 -2 4 C-1.34 2.68 -0.68 1.36 0 0 Z " fill="#060606" transform="translate(275,706)"/>
<path d="M0 0 C0.99 0.495 0.99 0.495 2 1 C3.70524886 1.08450823 5.41377899 1.10722888 7.12109375 1.09765625 C8.64766602 1.09282227 8.64766602 1.09282227 10.20507812 1.08789062 C11.27177734 1.07951172 12.33847656 1.07113281 13.4375 1.0625 C15.03174805 1.05573242 15.03174805 1.05573242 16.65820312 1.04882812 C18.6320913 1.04008858 20.60597218 1.02930371 22.57983398 1.01586914 C24.38652489 1.00402258 26.19327025 1 28 1 C28.33 1.99 28.66 2.98 29 4 C19.76 4 10.52 4 1 4 C0.67 2.68 0.34 1.36 0 0 Z " fill="#313132" transform="translate(738,822)"/>
<path d="M0 0 C3 3.75 3 3.75 3 6 C-5.58 6 -14.16 6 -23 6 C-23 5.34 -23 4.68 -23 4 C-15.41 3.67 -7.82 3.34 0 3 C0 2.01 0 1.02 0 0 Z " fill="#323132" transform="translate(344,820)"/>
<path d="M0 0 C0.33 0 0.66 0 1 0 C1.04947698 3.93265896 1.08575578 7.86519714 1.10986328 11.7980957 C1.12485495 13.79319618 1.15026731 15.78820946 1.17578125 17.78320312 C1.18222656 19.03681641 1.18867187 20.29042969 1.1953125 21.58203125 C1.20578613 22.73936768 1.21625977 23.8967041 1.22705078 25.08911133 C1 28 1 28 -1 31 C-1.84191782 28.0751367 -2.11819313 25.49258344 -2.09765625 22.453125 C-2.09443359 21.60878906 -2.09121094 20.76445312 -2.08789062 19.89453125 C-2.07951172 19.02183594 -2.07113281 18.14914062 -2.0625 17.25 C-2.05798828 16.36183594 -2.05347656 15.47367187 -2.04882812 14.55859375 C-2.037074 12.37232671 -2.02064249 10.18619821 -2 8 C-1.67 8 -1.34 8 -1 8 C-0.67 5.36 -0.34 2.72 0 0 Z " fill="#1A191A" transform="translate(696,442)"/>
<path d="M0 0 C0.99 0 1.98 0 3 0 C3.08724706 3.4165052 3.14047325 6.83272313 3.1875 10.25 C3.22520508 11.70212891 3.22520508 11.70212891 3.26367188 13.18359375 C3.27333984 14.11816406 3.28300781 15.05273438 3.29296875 16.015625 C3.3086792 16.87446289 3.32438965 17.73330078 3.34057617 18.61816406 C3 21 3 21 0 25 C0 16.75 0 8.5 0 0 Z " fill="#1E1D1E" transform="translate(758,251)"/>
<path d="M0 0 C0.99 0 1.98 0 3 0 C3 7.92 3 15.84 3 24 C2.67 24 2.34 24 2 24 C1.855625 22.865625 1.71125 21.73125 1.5625 20.5625 C1.38828522 17.19222799 1.38828522 17.19222799 0 16 C-0.07319621 13.30345146 -0.09242537 10.63308542 -0.0625 7.9375 C-0.05798828 7.17888672 -0.05347656 6.42027344 -0.04882812 5.63867188 C-0.0370068 3.75908129 -0.01907078 1.87953101 0 0 Z " fill="#232323" transform="translate(263,180)"/>
<path d="M0 0 C0.33 0 0.66 0 1 0 C2.11165232 4.4378561 2.11527763 8.76956386 2.0625 13.3125 C2.05798828 14.05306641 2.05347656 14.79363281 2.04882812 15.55664062 C2.03712175 17.37112899 2.01918898 19.18557534 2 21 C1.01 20.67 0.02 20.34 -1 20 C-1.02689449 17.04160645 -1.04678741 14.08345573 -1.0625 11.125 C-1.07087891 10.28324219 -1.07925781 9.44148438 -1.08789062 8.57421875 C-1.09111328 7.76855469 -1.09433594 6.96289062 -1.09765625 6.1328125 C-1.10289307 5.38918457 -1.10812988 4.64555664 -1.11352539 3.87939453 C-1 2 -1 2 0 0 Z " fill="#1E1E1F" transform="translate(266,498)"/>
<path d="M0 0 C0.66 0.33 1.32 0.66 2 1 C2 4.96 2 8.92 2 13 C1.01 12.34 0.02 11.68 -1 11 C-1.328125 8.65234375 -1.328125 8.65234375 -1.25 5.9375 C-1.23453125 5.03902344 -1.2190625 4.14054687 -1.203125 3.21484375 C-1 1 -1 1 0 0 Z " fill="#1B1B1C" transform="translate(324,418)"/>
<path d="M0 0 C0.33 0 0.66 0 1 0 C1.66 5.61 2.32 11.22 3 17 C1.35 15.35 -0.3 13.7 -2 12 C-2 11.34 -2 10.68 -2 10 C-1.34 10 -0.68 10 0 10 C0 6.7 0 3.4 0 0 Z " fill="#F1F1F1" transform="translate(186,769)"/>
<path d="M0 0 C0.66 0.33 1.32 0.66 2 1 C1.40832031 1.45890625 0.81664062 1.9178125 0.20703125 2.390625 C-3.88379822 5.56719079 -7.96818271 8.74853444 -12 12 C-10.52238806 6.3358209 -10.52238806 6.3358209 -8.25 4.875 C-7.5075 4.58625 -6.765 4.2975 -6 4 C-3.98817543 2.68457624 -1.98600337 1.3540932 0 0 Z " fill="#0A0A0A" transform="translate(778,398)"/>
<path d="M0 0 C0.5534764 2.07553648 1 3.84365964 1 6 C1.99 5.67 2.98 5.34 4 5 C4.99 6.32 5.98 7.64 7 9 C6.67 9.66 6.34 10.32 6 11 C3.36 9.35 0.72 7.7 -2 6 C-1.34 4.02 -0.68 2.04 0 0 Z " fill="#1B1C1C" transform="translate(682,167)"/>
<path d="M0 0 C0.66 0.33 1.32 0.66 2 1 C0.35 2.32 -1.3 3.64 -3 5 C-2.67 5.66 -2.34 6.32 -2 7 C-6.75 6.25 -6.75 6.25 -9 4 C-7.54618103 3.30300448 -6.08677047 2.61766134 -4.625 1.9375 C-3.40683594 1.36322266 -3.40683594 1.36322266 -2.1640625 0.77734375 C-1.44992187 0.52082031 -0.73578125 0.26429688 0 0 Z " fill="#E8E9E9" transform="translate(289,353)"/>
<path d="M0 0 C0.66 0 1.32 0 2 0 C2.33 1.98 2.66 3.96 3 6 C1.35 6.66 -0.3 7.32 -2 8 C-1.34 5.36 -0.68 2.72 0 0 Z " fill="#EEEEEE" transform="translate(287,733)"/>
<path d="M0 0 C0.99 0.495 0.99 0.495 2 1 C2.6328125 3.06640625 2.6328125 3.06640625 3.125 5.5625 C3.29257812 6.38878906 3.46015625 7.21507812 3.6328125 8.06640625 C3.75398438 8.70449219 3.87515625 9.34257813 4 10 C3.34 8.68 2.68 7.36 2 6 C1.34 6 0.68 6 0 6 C0 4.02 0 2.04 0 0 Z " fill="#0D0D0D" transform="translate(339,807)"/>
<path d="M0 0 C2 3 2 3 1.625 5.6875 C1.41875 6.450625 1.2125 7.21375 1 8 C0.34 8 -0.32 8 -1 8 C-0.67 5.36 -0.34 2.72 0 0 Z " fill="#1E1E1E" transform="translate(693,515)"/>
<path d="M0 0 C0.66 0.66 1.32 1.32 2 2 C-0.625 6.875 -0.625 6.875 -4 8 C-4 7.34 -4 6.68 -4 6 C-3.34 6 -2.68 6 -2 6 C-2 4.68 -2 3.36 -2 2 C-1.34 2 -0.68 2 0 2 C0 1.34 0 0.68 0 0 Z " fill="#1D1D1D" transform="translate(612,234)"/>
</svg>
