<?xml version="1.0" encoding="UTF-8"?>
<svg xmlns="http://www.w3.org/2000/svg" width="1600" height="900" viewBox="0 0 1600 900">
  <defs>
    <style>
      .mark{fill:none;stroke:#000;stroke-width:80;stroke-linecap:round;stroke-linejoin:round}
      .txt{font-family:Arial, Helvetica, sans-serif;font-weight:800;font-size:200px;fill:#000;letter-spacing:12px}
    </style>
  </defs>
  <path class="mark" d="M420,160 C320,160 300,220 300,260 C300,310 260,340 210,360 C260,380 300,410 300,460 C300,500 320,560 420,560"/>
  <path class="mark" d="M1180,160 C1280,160 1300,220 1300,260 C1300,310 1340,340 1390,360 C1340,380 1300,410 1300,460 C1300,500 1280,560 1180,560"/>
  <path class="mark" d="M800,80 L1000,520"/>
  <text class="txt" x="400" y="820">NAESTRO</text>
</svg>
